<svg xmlns="http://www.w3.org/2000/svg" height="40" viewBox="0 -960 960 960" width="40"><path d="M480-353.846q52.256 0 89.205-36.949 36.949-36.948 36.949-89.205 0-52.256-36.949-89.205T480-606.154q-52.257 0-89.205 36.949-36.949 36.949-36.949 89.205 0 52.257 36.949 89.205 36.948 36.949 89.205 36.949ZM480-320q-66.846 0-113.423-46.577T320-480q0-66.846 46.577-113.423T480-640q66.846 0 113.423 46.577T640-480q0 66.846-46.577 113.423T480-320ZM200-463.077H60v-33.846h140v33.846Zm700 0H760v-33.846h140v33.846ZM463.077-760v-140h33.846v140h-33.846Zm0 700v-140h33.846v140h-33.846ZM271.795-666.103l-86.231-83.923 23.564-25.41 84.462 85.385-21.795 23.948Zm479.231 481.385-84.846-85.461 22.692-23.872 85.564 84.077-23.41 25.256Zm-85.077-504.154 84.077-85.564 25.41 23.41-85.231 84.77-24.256-22.616ZM184.718-209.128l85.308-84.846 22.487 22.333-83.308 86.846-24.487-24.333ZM480-480Z"/></svg>